<?xml version="1.0" encoding="UTF-8"?>
<svg version="1.1" xmlns="http://www.w3.org/2000/svg" width="24" height="24">
<path d="M0 0 C1.175625 0.0825 2.35125 0.165 3.5625 0.25 C6.24177341 4.26891012 5.71851248 6.49161923 5.5625 11.25 C4.469375 11.188125 3.37625 11.12625 2.25 11.0625 C-1.30823646 10.94381214 -1.30823646 10.94381214 -3.4375 12.5 C-4.68385791 14.23281099 -4.68385791 14.23281099 -4 16.359375 C-3.814375 16.98328125 -3.62875 17.6071875 -3.4375 18.25 C-4.06398438 18.23839844 -4.69046875 18.22679688 -5.3359375 18.21484375 C-6.56183594 18.20130859 -6.56183594 18.20130859 -7.8125 18.1875 C-9.03066406 18.17009766 -9.03066406 18.17009766 -10.2734375 18.15234375 C-12.48687142 18.10533666 -12.48687142 18.10533666 -14.4375 19.25 C-14.7675 20.24 -15.0975 21.23 -15.4375 22.25 C-12.4675 22.25 -9.4975 22.25 -6.4375 22.25 C-6.4375 22.91 -6.4375 23.57 -6.4375 24.25 C-10.3975 24.25 -14.3575 24.25 -18.4375 24.25 C-18.4375 18.25 -18.4375 18.25 -14.4375 14.25 C-14.27068891 11.16652174 -14.27068891 11.16652174 -14.4375 8.25 C-13.7775 7.59 -13.1175 6.93 -12.4375 6.25 C-8.8125 6.625 -8.8125 6.625 -5.4375 7.25 C-5.293125 6.280625 -5.14875 5.31125 -5 4.3125 C-4.26487871 0.310173 -4.26487871 0.310173 0 0 Z M-0.4375 2.25 C-1.0975 3.57 -1.7575 4.89 -2.4375 6.25 C-1.1175 6.58 0.2025 6.91 1.5625 7.25 C1.5625 5.93 1.5625 4.61 1.5625 3.25 C0.9025 2.92 0.2425 2.59 -0.4375 2.25 Z M-5.4375 7.25 C-4.4375 9.25 -4.4375 9.25 -4.4375 9.25 Z M-11.4375 9.25 C-11.7675 10.24 -12.0975 11.23 -12.4375 12.25 C-10.9525 13.24 -10.9525 13.24 -9.4375 14.25 C-8.7775 13.92 -8.1175 13.59 -7.4375 13.25 C-7.7675 11.93 -8.0975 10.61 -8.4375 9.25 C-9.4275 9.25 -10.4175 9.25 -11.4375 9.25 Z " fill="#E4E4E4" transform="translate(18.4375,-0.25)"/>
<path d="M0 0 C0.99 0 1.98 0 3 0 C3 0.99 3 1.98 3 3 C3.99 3 4.98 3 6 3 C6 3.99 6 4.98 6 6 C5.01 6 4.02 6 3 6 C3 6.99 3 7.98 3 9 C2.01 9 1.02 9 0 9 C0 8.01 0 7.02 0 6 C-0.99 6 -1.98 6 -3 6 C-3 5.01 -3 4.02 -3 3 C-2.01 3 -1.02 3 0 3 C0 2.01 0 1.02 0 0 Z " fill="#E3E3E3" transform="translate(18,15)"/>
</svg>
