<?xml version="1.0" encoding="UTF-8"?>
<svg version="1.1" xmlns="http://www.w3.org/2000/svg" width="64" height="64">
<path d="M0 0 C4.21915311 2.36781097 7.0182742 5.25576791 8.96484375 9.6953125 C10.21745985 14.77001361 9.85864271 19.98122591 9.57421875 25.1640625 C10.37859375 25.3084375 11.18296875 25.4528125 12.01171875 25.6015625 C14.57421875 26.1640625 14.57421875 26.1640625 15.57421875 27.1640625 C15.6751335 29.74595696 15.71393374 32.3005275 15.70703125 34.8828125 C15.70798798 35.65588745 15.7089447 36.4289624 15.70993042 37.22546387 C15.71061216 38.86303794 15.70875832 40.50061469 15.70458984 42.13818359 C15.69924146 44.65338171 15.70453501 47.16840123 15.7109375 49.68359375 C15.71027672 51.27083373 15.70899555 52.8580736 15.70703125 54.4453125 C15.70905548 55.20259644 15.71107971 55.95988037 15.71316528 56.7401123 C15.68917007 62.04911118 15.68917007 62.04911118 14.57421875 63.1640625 C13.13681522 63.26220237 11.69465548 63.2920453 10.25390625 63.29345703 C9.33625488 63.29660919 8.41860352 63.29976135 7.47314453 63.30300903 C6.47524902 63.3009848 5.47735352 63.29896057 4.44921875 63.296875 C3.4319873 63.29783173 2.41475586 63.29878845 1.36669922 63.29977417 C-0.78873761 63.30045611 -2.94417647 63.29860085 -5.09960938 63.29443359 C-8.41150496 63.28908555 -11.72326492 63.29437813 -15.03515625 63.30078125 C-17.12369822 63.30012047 -19.2122401 63.29883931 -21.30078125 63.296875 C-22.79762451 63.29991135 -22.79762451 63.29991135 -24.32470703 63.30300903 C-25.2423584 63.29985687 -26.16000977 63.29670471 -27.10546875 63.29345703 C-27.91741699 63.29266144 -28.72936523 63.29186584 -29.56591797 63.29104614 C-31.42578125 63.1640625 -31.42578125 63.1640625 -32.42578125 62.1640625 C-32.53910218 59.59386765 -32.5899561 57.05154773 -32.59375 54.48046875 C-32.5987426 53.32441383 -32.5987426 53.32441383 -32.60383606 52.14500427 C-32.60890835 50.51163329 -32.61124429 48.8782519 -32.61108398 47.24487305 C-32.61326905 44.74054951 -32.6314172 42.23666729 -32.65039062 39.73242188 C-32.65332472 38.14843901 -32.65530941 36.56445405 -32.65625 34.98046875 C-32.66343552 34.2283461 -32.67062103 33.47622345 -32.67802429 32.7013092 C-32.65460404 27.39288529 -32.65460404 27.39288529 -30.42578125 25.1640625 C-29.10578125 25.1640625 -27.78578125 25.1640625 -26.42578125 25.1640625 C-26.4721875 24.3184375 -26.51859375 23.4728125 -26.56640625 22.6015625 C-26.79034313 15.56354618 -26.81602165 9.91386122 -22.42578125 4.1640625 C-16.33351448 -1.63102052 -7.96296597 -2.74408167 0 0 Z M-17.42578125 10.1640625 C-20.5010183 15.14301772 -19.42578125 18.76337274 -19.42578125 25.1640625 C-12.16578125 25.1640625 -4.90578125 25.1640625 2.57421875 25.1640625 C2.90063393 14.94275195 2.90063393 14.94275195 -2.11328125 7.2890625 C-8.01147243 4.41967219 -13.09529452 5.451474 -17.42578125 10.1640625 Z M-10.42578125 37.1640625 C-11.08578125 37.8240625 -11.74578125 38.4840625 -12.42578125 39.1640625 C-12.44794371 41.28398625 -12.44794371 41.28398625 -12.05078125 43.6015625 C-11.68374818 46.19213311 -11.42578125 48.53772835 -11.42578125 51.1640625 C-9.44578125 51.1640625 -7.46578125 51.1640625 -5.42578125 51.1640625 C-5.44640625 50.1121875 -5.46703125 49.0603125 -5.48828125 47.9765625 C-5.42578125 44.1640625 -5.42578125 44.1640625 -4.80078125 41.3515625 C-4.61515625 40.26875 -4.61515625 40.26875 -4.42578125 39.1640625 C-5.08578125 38.5040625 -5.74578125 37.8440625 -6.42578125 37.1640625 C-7.74578125 37.1640625 -9.06578125 37.1640625 -10.42578125 37.1640625 Z " fill="#C4C4C4" transform="translate(40.42578125,0.8359375)"/>
</svg>
