<svg width="20" height="20" viewBox="0 0 20 20" fill="none" xmlns="http://www.w3.org/2000/svg">
<path d="M13.2625 1.50006C13.1784 1.49894 13.0948 1.5145 13.0168 1.54582C12.9387 1.57714 12.8675 1.62361 12.8075 1.68256L11.1838 3.30756C11.1255 3.36561 11.0794 3.43458 11.0479 3.51051C11.0164 3.58644 11.0001 3.66785 11.0001 3.75006C11.0001 3.83226 11.0164 3.91367 11.0479 3.9896C11.0794 4.06553 11.1255 4.1345 11.1838 4.19256L11.5525 4.56006L8.375 7.73881L7.19375 6.55755C7.07655 6.44039 6.9176 6.37456 6.75188 6.37456C6.58615 6.37456 6.42721 6.44039 6.31 6.55755L4.685 8.18256C4.6268 8.24061 4.58062 8.30958 4.54911 8.38551C4.5176 8.46144 4.50138 8.54285 4.50138 8.62506C4.50138 8.70726 4.5176 8.78867 4.54911 8.8646C4.58062 8.94053 4.6268 9.0095 4.685 9.06755L7.0575 11.4401L1.81 16.6851C1.6925 16.8026 1.5975 16.9538 1.5975 17.1188L1.25 18.3751C1.25 18.7201 1.27875 18.7513 1.62375 18.7513H3.24875C3.415 18.7513 3.44875 18.6863 3.5675 18.5688L8.81125 13.3238L11.1813 15.5676C11.2985 15.6847 11.4574 15.7505 11.6231 15.7505C11.7889 15.7505 11.9478 15.6847 12.065 15.5676L13.6913 13.9426C13.8085 13.8251 13.8743 13.666 13.8743 13.5001C13.8743 13.3341 13.8085 13.175 13.6913 13.0576L12.51 11.8763L15.6888 8.69756L16.06 9.06881C16.1419 9.15054 16.2448 9.20796 16.3573 9.23466C16.4699 9.26137 16.5877 9.25631 16.6975 9.22005H16.6988C16.791 9.18927 16.8749 9.13749 16.9438 9.06881L18.5675 7.44506C18.6847 7.32785 18.7505 7.16891 18.7505 7.00318C18.7505 6.83745 18.6847 6.67851 18.5675 6.56131L13.6925 1.68631C13.6236 1.61769 13.5397 1.56593 13.4475 1.53506C13.3873 1.51565 13.3245 1.50554 13.2613 1.50506L13.2625 1.50006Z" fill="#898989"/>
</svg>
