<?xml version="1.0" encoding="UTF-8"?>
<svg version="1.1" xmlns="http://www.w3.org/2000/svg" width="64" height="64">
<path d="M0 0 C4.87995132 2.26569169 7.63239735 5.17373306 10 10 C10.30785557 13.03386697 10.24291613 15.96354841 10 19 C7.625 19.625 7.625 19.625 5 20 C3 18 3 18 2.125 14.5625 C1.28632143 11.04713203 1.28632143 11.04713203 -0.75 9.0625 C-3.81584645 7.61473918 -5.64397416 7.45207741 -9 8 C-12.05860827 9.63694509 -12.05860827 9.63694509 -14 13 C-14.48053704 15.98642743 -14.48053704 15.98642743 -14.63671875 19.203125 C-14.70979248 20.28754883 -14.78286621 21.37197266 -14.8581543 22.48925781 C-14.90496338 23.31780273 -14.95177246 24.14634766 -15 25 C-14.10168457 24.98952637 -13.20336914 24.97905273 -12.27783203 24.96826172 C-8.94935553 24.9342053 -5.62106378 24.90911382 -2.29248047 24.89013672 C-0.85104453 24.88007037 0.59037095 24.8664162 2.03173828 24.84912109 C4.10193934 24.82489988 6.17187076 24.81352359 8.2421875 24.8046875 C10.11173096 24.78897705 10.11173096 24.78897705 12.01904297 24.77294922 C15 25 15 25 17 27 C17.1874551 29.71310649 17.25565406 32.32229085 17.23046875 35.03515625 C17.23001053 35.8290123 17.22955231 36.62286835 17.2290802 37.44078064 C17.22605765 39.11947117 17.21817125 40.7981589 17.20581055 42.47680664 C17.18754885 45.05560158 17.18530087 47.63403777 17.18554688 50.21289062 C17.18063196 51.84114896 17.17480376 53.46940484 17.16796875 55.09765625 C17.16685593 55.87367691 17.1657431 56.64969757 17.16459656 57.44923401 C17.11605007 62.88394993 17.11605007 62.88394993 16 64 C14.62390118 64.09795311 13.24286118 64.12798088 11.86328125 64.12939453 C10.54686646 64.13412277 10.54686646 64.13412277 9.20385742 64.13894653 C8.24970947 64.1369223 7.29556152 64.13489807 6.3125 64.1328125 C4.85324097 64.13424759 4.85324097 64.13424759 3.36450195 64.13571167 C1.303222 64.13639358 -0.75806008 64.13453853 -2.81933594 64.13037109 C-5.98637688 64.125023 -9.153276 64.13031572 -12.3203125 64.13671875 C-14.31770865 64.13605797 -16.31510471 64.13477681 -18.3125 64.1328125 C-19.26664795 64.13483673 -20.2207959 64.13686096 -21.20385742 64.13894653 C-22.08146729 64.13579437 -22.95907715 64.13264221 -23.86328125 64.12939453 C-24.63969971 64.12859894 -25.41611816 64.12780334 -26.21606445 64.12698364 C-28 64 -28 64 -29 63 C-29.11336626 60.35713726 -29.16417761 57.74138544 -29.16796875 55.09765625 C-29.17129715 54.30475693 -29.17462555 53.5118576 -29.17805481 52.69493103 C-29.18312726 51.01448142 -29.18546304 49.33402171 -29.18530273 47.65356445 C-29.18748786 45.07681741 -29.20563609 42.50049924 -29.22460938 39.92382812 C-29.22754345 38.2942723 -29.22952815 36.66471444 -29.23046875 35.03515625 C-29.23765427 34.26115982 -29.24483978 33.48716339 -29.25224304 32.68971252 C-29.22882253 27.22882253 -29.22882253 27.22882253 -27 25 C-24.375 24.875 -24.375 24.875 -22 25 C-22.04640625 24.07058594 -22.0928125 23.14117188 -22.140625 22.18359375 C-22.51205937 9.4619666 -22.51205937 9.4619666 -18 4 C-12.81422788 -1.05612782 -6.8480068 -0.92184707 0 0 Z M-10.3125 37.6875 C-12.23438451 39.82609815 -12.23438451 39.82609815 -11.9375 42.25 C-10.70387059 45.86864628 -9.38878657 49.43746053 -8 53 C-6.68 53 -5.36 53 -4 53 C-1.26085497 46.66778123 -1.26085497 46.66778123 0 40 C-1.58333333 37.58333333 -1.58333333 37.58333333 -4 36 C-7.93859697 35.60702062 -7.93859697 35.60702062 -10.3125 37.6875 Z " fill="#C4C4C4" transform="translate(38,0)"/>
</svg>
