<?xml version="1.0" encoding="UTF-8"?>
<svg version="1.1" xmlns="http://www.w3.org/2000/svg" width="64" height="64">
<path d="M0 0 C0.96099609 0.42474609 1.92199219 0.84949219 2.91210938 1.28710938 C5.25905291 2.32630328 7.60035516 3.37649826 9.9375 4.4375 C10.05548604 8.20806169 10.12533864 11.97813765 10.1875 15.75 C10.22101562 16.80251953 10.25453125 17.85503906 10.2890625 18.93945312 C10.43804809 31.04453205 6.49376837 41.69765612 -2.015625 50.4453125 C-6.49330678 54.52991534 -10.76262963 57.76252652 -16.8125 59 C-24.90082166 57.60009817 -31.16028393 52.0829307 -36.3046875 45.94921875 C-40.9708656 39.28176872 -44.2015503 31.83040898 -44.16015625 23.67578125 C-44.15693359 22.55751953 -44.15371094 21.43925781 -44.15039062 20.28710938 C-44.14201172 19.11986328 -44.13363281 17.95261719 -44.125 16.75 C-44.11823242 14.98172852 -44.11823242 14.98172852 -44.11132812 13.17773438 C-44.09953273 10.26427211 -44.0830727 7.35091137 -44.0625 4.4375 C-40.26446573 2.7160305 -36.44729811 1.04181651 -32.625 -0.625 C-31.55572266 -1.11033203 -30.48644531 -1.59566406 -29.38476562 -2.09570312 C-17.76404537 -7.10647241 -11.21190286 -5.09490088 0 0 Z M-22.6953125 2.15234375 C-23.58347656 2.50876953 -24.47164062 2.86519531 -25.38671875 3.23242188 C-26.77310547 3.79799805 -26.77310547 3.79799805 -28.1875 4.375 C-29.11949219 4.74818359 -30.05148438 5.12136719 -31.01171875 5.50585938 C-35.34114952 6.97449964 -35.34114952 6.97449964 -39.0625 9.4375 C-40.12745429 21.25106274 -38.05716029 32.74001981 -31.0625 42.4375 C-27.44973001 46.39926745 -23.60044791 49.47628256 -19.0625 52.3125 C-14.00876812 52.52307216 -10.80405985 49.60136838 -7.0625 46.4375 C1.66489434 38.13395262 4.58977659 28.31603773 5.0546875 16.4453125 C5.06131756 14.10490249 5.03062008 11.77584875 4.9375 9.4375 C0.60925279 7.42632949 -3.72421819 5.42693378 -8.0625 3.4375 C-8.82691406 3.08558594 -9.59132813 2.73367187 -10.37890625 2.37109375 C-15.23100386 0.20179741 -17.82312366 0.18874483 -22.6953125 2.15234375 Z " fill="#898989" transform="translate(49.0625,5.5625)"/>
<path d="M0 0 C1.0209375 0.2165625 1.0209375 0.2165625 2.0625 0.4375 C2.73681641 2.21948242 2.73681641 2.21948242 3.0625 4.4375 C1.30964356 7.254059 -1.19660156 9.43776592 -3.5625 11.75 C-4.19285156 12.40806641 -4.82320312 13.06613281 -5.47265625 13.74414062 C-10.14473774 18.39193895 -10.14473774 18.39193895 -13.65625 18.59375 C-16.30404326 17.2517178 -17.87143791 15.87013405 -19.8125 13.625 C-20.42867187 12.93792969 -21.04484375 12.25085937 -21.6796875 11.54296875 C-22.9375 9.4375 -22.9375 9.4375 -22.6328125 7.17578125 C-22.40335938 6.60214844 -22.17390625 6.02851563 -21.9375 5.4375 C-18.24995243 5.93581724 -16.33259338 6.53817643 -13.9375 9.4375 C-10.72007304 8.04351633 -8.82138474 6.41802653 -6.5 3.8125 C-3.31123734 0.49316301 -3.31123734 0.49316301 0 0 Z " fill="#888888" transform="translate(41.9375,21.5625)"/>
</svg>
